<svg fill="#FFFFFF" xmlns="http://www.w3.org/2000/svg"  viewBox="0 0 50 50" width="50px" height="50px"><path d="M 6 3 C 4.3550302 3 3 4.3550302 3 6 L 3 16 C 3 17.64497 4.3550302 19 6 19 L 9 19 L 9 21 A 1.0001 1.0001 0 1 0 11 21 L 11 19 L 16 19 C 17.64497 19 19 17.64497 19 16 L 19 12 L 24 12 A 1.0001 1.0001 0 1 0 24 10 L 19 10 L 19 6 C 19 4.3550302 17.64497 3 16 3 L 6 3 z M 34 3 C 32.35503 3 31 4.3550302 31 6 L 31 10 L 28 10 A 1.0001 1.0001 0 1 0 28 12 L 31 12 L 31 16 C 31 17.64497 32.35503 19 34 19 L 38 19 L 38 24 A 1.0001 1.0001 0 1 0 40 24 L 40 19 L 44 19 C 45.64497 19 47 17.64497 47 16 L 47 6 C 47 4.3550302 45.64497 3 44 3 L 34 3 z M 6 5 L 16 5 C 16.56503 5 17 5.4349698 17 6 L 17 10.832031 A 1.0001 1.0001 0 0 0 17 11.158203 L 17 16 C 17 16.56503 16.56503 17 16 17 L 10.154297 17 A 1.0001 1.0001 0 0 0 9.984375 16.986328 A 1.0001 1.0001 0 0 0 9.8398438 17 L 6 17 C 5.4349698 17 5 16.56503 5 16 L 5 6 C 5 5.4349698 5.4349698 5 6 5 z M 34 5 L 44 5 C 44.56503 5 45 5.4349698 45 6 L 45 16 C 45 16.56503 44.56503 17 44 17 L 39.154297 17 A 1.0001 1.0001 0 0 0 38.984375 16.986328 A 1.0001 1.0001 0 0 0 38.839844 17 L 34 17 C 33.43497 17 33 16.56503 33 16 L 33 6 C 33 5.4349698 33.43497 5 34 5 z M 9.984375 23.986328 A 1.0001 1.0001 0 0 0 9 25 L 9 31 L 6 31 C 4.3550302 31 3 32.35503 3 34 L 3 44 C 3 45.64497 4.3550302 47 6 47 L 16 47 C 17.64497 47 19 45.64497 19 44 L 19 40 L 22 40 A 1.0001 1.0001 0 1 0 22 38 L 19 38 L 19 34 C 19 32.35503 17.64497 31 16 31 L 11 31 L 11 25 A 1.0001 1.0001 0 0 0 9.984375 23.986328 z M 38.984375 26.986328 A 1.0001 1.0001 0 0 0 38 28 L 38 30 L 34 30 C 32.35503 30 31 31.35503 31 33 L 31 38 L 26 38 A 1.0001 1.0001 0 1 0 26 40 L 31 40 L 31 43 C 31 44.64497 32.35503 46 34 46 L 44 46 C 45.64497 46 47 44.64497 47 43 L 47 33 C 47 31.35503 45.64497 30 44 30 L 40 30 L 40 28 A 1.0001 1.0001 0 0 0 38.984375 26.986328 z M 34 32 L 38.832031 32 A 1.0001 1.0001 0 0 0 39.158203 32 L 44 32 C 44.56503 32 45 32.43497 45 33 L 45 43 C 45 43.56503 44.56503 44 44 44 L 34 44 C 33.43497 44 33 43.56503 33 43 L 33 39.167969 A 1.0001 1.0001 0 0 0 33 38.841797 L 33 33 C 33 32.43497 33.43497 32 34 32 z M 6 33 L 16 33 C 16.56503 33 17 33.43497 17 34 L 17 44 C 17 44.56503 16.56503 45 16 45 L 6 45 C 5.4349698 45 5 44.56503 5 44 L 5 34 C 5 33.43497 5.4349698 33 6 33 z"/></svg>