<svg fill="#FFFFFF" xmlns="http://www.w3.org/2000/svg"  viewBox="0 0 50 50" width="50px" height="50px"><path d="M -0.203125 -0.1015625 L -0.203125 1.8984375 L 13.796875 1.8984375 C 16.107608 1.8984375 17.153251 2.4548161 17.832031 3.5058594 C 18.510812 4.5569027 18.796875 6.3825245 18.796875 8.8984375 L 18.796875 29.744141 L 18.796875 40.898438 C 18.796875 42.283906 18.383758 42.819626 17.564453 43.261719 C 16.745148 43.703812 15.383632 43.898438 13.796875 43.898438 L -0.203125 43.898438 L -0.203125 45.898438 L 9.796875 45.898438 L 9.796875 46.898438 C 9.796875 48.5435 11.151812 49.898438 12.796875 49.898438 L 16.796875 49.898438 C 18.441938 49.898438 19.796875 48.5435 19.796875 46.898438 L 19.796875 43.941406 C 20.418288 43.159552 20.796875 42.123061 20.796875 40.898438 L 20.796875 29.744141 L 20.796875 8.8984375 C 20.796875 6.2533505 20.582938 4.0805817 19.511719 2.421875 C 18.440499 0.76316832 16.486142 -0.1015625 13.796875 -0.1015625 L -0.203125 -0.1015625 z M -0.203125 2.8984375 L -0.203125 4.8984375 L 9.796875 4.8984375 L 9.796875 6.8984375 L -0.203125 6.8984375 L -0.203125 8.8984375 L 9.796875 8.8984375 C 10.889959 8.8984375 11.796875 7.9902926 11.796875 6.8984375 L 11.796875 4.8984375 C 11.796875 3.8065824 10.889959 2.8984375 9.796875 2.8984375 L -0.203125 2.8984375 z M 39.894531 7.4394531 C 38.433198 7.4394531 37.210814 8.0245525 36.421875 8.9121094 C 35.632936 9.7996663 35.261719 10.943497 35.261719 12.074219 C 35.261719 13.204941 35.632936 14.348771 36.421875 15.236328 C 37.210814 16.123885 38.433198 16.707031 39.894531 16.707031 C 41.355864 16.707031 42.578248 16.123885 43.367188 15.236328 C 44.156126 14.348771 44.529297 13.204941 44.529297 12.074219 C 44.529297 10.943497 44.156127 9.7996663 43.367188 8.9121094 C 42.578248 8.0245525 41.355864 7.4394532 39.894531 7.4394531 z M 39.894531 9.4394531 C 40.855864 9.4394531 41.450653 9.7650417 41.873047 10.240234 C 42.295441 10.715427 42.529297 11.387941 42.529297 12.074219 C 42.529297 12.760497 42.295441 13.43301 41.873047 13.908203 C 41.450653 14.383396 40.855864 14.707031 39.894531 14.707031 C 38.933199 14.707031 38.338409 14.383396 37.916016 13.908203 C 37.493622 13.43301 37.261719 12.760497 37.261719 12.074219 C 37.261719 11.387941 37.493622 10.715427 37.916016 10.240234 C 38.338409 9.7650417 38.933199 9.4394531 39.894531 9.4394531 z M -0.203125 9.8984375 L -0.203125 11.898438 L 12.796875 11.898438 C 13.630208 11.898438 14.075546 12.091171 14.339844 12.355469 C 14.604141 12.619766 14.796875 13.065103 14.796875 13.898438 L 14.796875 25.898438 C 14.796875 26.572937 14.508651 26.984669 14.076172 27.320312 C 13.643693 27.655957 13.026838 27.820312 12.796875 27.820312 L -0.20507812 27.845703 L -0.20117188 29.845703 L 12.796875 29.820312 C 13.613912 29.820312 14.496963 29.525746 15.302734 28.900391 C 16.108505 28.275036 16.796875 27.223937 16.796875 25.898438 L 16.796875 13.898438 C 16.796875 12.73177 16.489609 11.677109 15.753906 10.941406 C 15.018204 10.205704 13.963542 9.8984375 12.796875 9.8984375 L -0.203125 9.8984375 z M 37.228516 16.984375 C 36.711131 16.950651 36.246725 17.051571 35.775391 17.136719 C 35.461167 17.193489 35.167258 17.260165 34.927734 17.320312 C 34.68821 17.380463 34.57156 17.399402 34.339844 17.498047 L 34.337891 17.5 L 27.337891 20.5 C 26.668632 20.785751 26.126373 21.305108 25.8125 21.962891 L 23.089844 27.652344 C 22.378052 29.135491 23.016874 30.941185 24.498047 31.652344 C 24.498047 31.652344 24.5 31.654297 24.5 31.654297 C 24.916578 31.854324 25.36182 31.947266 25.792969 31.947266 C 26.912913 31.947266 27.988579 31.312742 28.5 30.242188 L 30.736328 25.568359 L 31.609375 25.195312 L 29.912109 31.976562 C 29.86209 32.176516 29.844541 32.376649 29.826172 32.576172 L 29.820312 32.576172 L 28.927734 39.703125 L 24.492188 45.029297 C 23.439699 46.291686 23.61249 48.198579 24.875 49.251953 C 24.875 49.251953 24.876953 49.251953 24.876953 49.251953 C 24.876953 49.251953 24.876953 49.253906 24.876953 49.253906 C 25.433588 49.717429 26.120064 49.949219 26.794922 49.949219 C 27.652971 49.949219 28.510746 49.57548 29.099609 48.869141 L 34.099609 42.869141 C 34.466549 42.428813 34.700788 41.891901 34.771484 41.320312 L 34.755859 41.416016 L 35.208984 39.408203 C 35.495626 39.709489 35.956633 40.19056 36.03125 40.269531 L 37.882812 47.675781 C 38.22222 49.027457 39.444405 49.948772 40.792969 49.947266 C 41.031415 49.947116 41.275747 49.918562 41.519531 49.857422 L 41.521484 49.857422 C 43.118514 49.459629 44.105614 47.815035 43.707031 46.220703 L 41.705078 38.220703 L 41.705078 38.21875 C 41.621788 37.888553 41.483657 37.573359 41.291016 37.285156 L 41.292969 37.285156 L 38.050781 32.421875 L 39.466797 26.753906 L 40.578125 27.972656 L 40.580078 27.974609 C 40.827792 28.244707 41.122541 28.467522 41.453125 28.632812 L 45.453125 30.632812 C 45.882743 30.847621 46.346033 30.949219 46.794922 30.949219 C 47.895861 30.949219 48.956031 30.336449 49.478516 29.292969 L 49.480469 29.291016 C 50.215753 27.818959 49.607782 26.001157 48.136719 25.265625 L 44.636719 23.517578 L 40.736328 19.236328 C 40.544726 19.026283 40.323008 18.863448 40.091797 18.720703 C 39.558267 17.930273 38.756776 17.316147 37.765625 17.068359 C 37.579094 17.021531 37.400977 16.995616 37.228516 16.984375 z M 37.279297 19.007812 L 37.28125 19.007812 C 38.365046 19.278762 39.007152 20.350973 38.736328 21.433594 L 35.896484 32.794922 L 39.628906 38.394531 L 39.628906 38.396484 C 39.690266 38.488284 39.736918 38.595181 39.765625 38.708984 L 41.765625 46.707031 C 41.902669 47.255205 41.587435 47.781795 41.037109 47.917969 L 41.035156 47.917969 L 41.033203 47.917969 C 40.952273 47.938329 40.873341 47.947266 40.791016 47.947266 L 40.789062 47.947266 C 40.347626 47.947759 39.938858 47.653777 39.822266 47.189453 L 37.84375 39.273438 L 37.664062 39.082031 C 37.664062 39.082031 36.752241 38.116587 35.808594 37.140625 C 35.33677 36.652644 34.857148 36.163021 34.472656 35.783203 C 34.28041 35.593294 34.113518 35.430894 33.972656 35.302734 C 33.902226 35.238654 33.841468 35.184529 33.771484 35.128906 C 33.736494 35.101096 33.699014 35.072759 33.644531 35.037109 C 33.590051 35.001469 33.552681 34.949969 33.310547 34.888672 L 33.308594 34.888672 C 32.372405 34.654625 31.768236 33.822396 31.794922 32.902344 L 31.804688 32.824219 L 31.798828 32.824219 C 31.80695 32.704609 31.823253 32.583864 31.853516 32.462891 L 34.527344 21.769531 L 29.257812 24.027344 L 26.695312 29.378906 L 26.695312 29.380859 C 26.520734 29.746304 26.163025 29.947266 25.792969 29.947266 C 25.645497 29.947266 25.503503 29.918202 25.365234 29.851562 L 25.363281 29.851562 L 25.363281 29.849609 C 24.854358 29.605878 24.648798 29.025539 24.892578 28.517578 L 27.617188 22.826172 L 27.617188 22.824219 C 27.721314 22.606001 27.902305 22.43214 28.123047 22.337891 L 28.125 22.337891 L 35.123047 19.339844 C 35.015831 19.385484 35.220097 19.308966 35.416016 19.259766 C 35.611929 19.210566 35.867333 19.153077 36.130859 19.105469 C 36.657913 19.010249 37.312421 19.016133 37.279297 19.007812 z M 40.632812 22.089844 L 43.410156 25.138672 L 47.242188 27.054688 C 47.747124 27.307156 47.942169 27.892495 47.689453 28.398438 C 47.509528 28.755205 47.161046 28.949219 46.794922 28.949219 C 46.643811 28.949219 46.494039 28.916939 46.347656 28.84375 L 42.347656 26.84375 C 42.239056 26.78945 42.140538 26.71598 42.056641 26.625 L 42.054688 26.623047 L 40.048828 24.423828 L 40.632812 22.089844 z M 12.296875 32.898438 C 9.823437 32.898438 7.796875 34.924999 7.796875 37.398438 C 7.796875 39.871876 9.823437 41.898437 12.296875 41.898438 C 14.770313 41.898438 16.796875 39.871876 16.796875 37.398438 C 16.796875 34.924999 14.770313 32.898438 12.296875 32.898438 z M 12.296875 34.898438 C 13.689437 34.898438 14.796875 36.005876 14.796875 37.398438 C 14.796875 38.790999 13.689437 39.898438 12.296875 39.898438 C 10.904313 39.898438 9.796875 38.790999 9.796875 37.398438 C 9.796875 36.005876 10.904313 34.898438 12.296875 34.898438 z M 31.390625 36.140625 C 31.738583 36.404329 32.142709 36.598532 32.576172 36.738281 C 32.594014 36.753508 32.600897 36.7595 32.626953 36.783203 C 32.730189 36.877133 32.88659 37.025518 33.068359 37.205078 C 33.201515 37.336615 33.388123 37.532451 33.544922 37.691406 L 32.792969 41.025391 L 32.787109 41.074219 C 32.763809 41.26263 32.687509 41.440218 32.564453 41.587891 L 27.564453 47.587891 C 27.361317 47.831551 27.082872 47.949219 26.794922 47.949219 C 26.568608 47.949219 26.347251 47.876139 26.15625 47.716797 C 25.72274 47.355794 25.666436 46.741479 26.027344 46.308594 L 30.839844 40.533203 L 31.390625 36.140625 z M 32.611328 36.753906 C 32.683705 36.776467 32.749803 36.809521 32.824219 36.828125 L 32.820312 36.828125 C 32.706654 36.79935 32.646943 36.773815 32.611328 36.753906 z M 17.796875 45.341797 L 17.796875 46.898438 C 17.796875 47.461374 17.359812 47.898436 16.796875 47.898438 L 12.796875 47.898438 C 12.233938 47.898438 11.796875 47.461374 11.796875 46.898438 L 11.796875 45.898438 L 13.796875 45.898438 C 15.228286 45.898438 16.598496 45.793155 17.796875 45.341797 z"/></svg>