<svg fill="#FFFFFF" xmlns="http://www.w3.org/2000/svg"  viewBox="0 0 50 50" width="50px" height="50px"><path d="M 46.34375 0 C 46.058594 0.0507813 45.804688 0.21875 45.65625 0.46875 C 45.65625 0.46875 45.019531 1.515625 44.375 2.75 C 44.054688 3.367188 43.722656 4.058594 43.46875 4.6875 C 43.214844 5.316406 43 5.851563 43 6.5 C 43 8.421875 44.578125 10 46.5 10 C 48.421875 10 50 8.421875 50 6.5 C 50 5.851563 49.785156 5.316406 49.53125 4.6875 C 49.277344 4.058594 48.945313 3.367188 48.625 2.75 C 47.980469 1.515625 47.34375 0.46875 47.34375 0.46875 C 47.148438 0.160156 46.800781 -0.0195313 46.4375 0 C 46.40625 0 46.375 0 46.34375 0 Z M 24.90625 0.96875 C 24.863281 0.976563 24.820313 0.988281 24.78125 1 C 24.316406 1.105469 23.988281 1.523438 24 2 L 24 6.03125 C 10.71875 6.46875 0 15.59375 0 29 C 0.00390625 29.40625 0.25 29.769531 0.628906 29.921875 C 1.003906 30.070313 1.4375 29.980469 1.71875 29.6875 C 1.71875 29.6875 5.03125 26.3125 9.09375 26.3125 C 13.046875 26.3125 16.8125 29.71875 16.8125 29.71875 C 17.019531 29.917969 17.304688 30.019531 17.589844 29.996094 C 17.878906 29.972656 18.140625 29.824219 18.3125 29.59375 C 18.3125 29.59375 20.429688 26.832031 24 26.375 L 24 43.34375 C 24 43.375 24 43.40625 24 43.4375 L 24 43.5 C 24 43.53125 24 43.5625 24 43.59375 C 23.949219 45.996094 21.914063 48 19.5 48 C 17.054688 48 15 45.945313 15 43.5 C 15.007813 43.191406 14.871094 42.898438 14.632813 42.703125 C 14.398438 42.507813 14.082031 42.433594 13.78125 42.5 C 13.316406 42.605469 12.988281 43.023438 13 43.5 C 13 47.054688 15.945313 50 19.5 50 C 23.003906 50 25.914063 47.140625 26 43.65625 C 26.003906 43.605469 26.003906 43.550781 26 43.5 C 26 43.46875 26 43.4375 26 43.40625 L 26 26.375 C 29.570313 26.832031 31.6875 29.59375 31.6875 29.59375 C 31.859375 29.835938 32.128906 29.992188 32.425781 30.015625 C 32.71875 30.039063 33.011719 29.929688 33.21875 29.71875 C 33.21875 29.71875 36.730469 26.3125 40.90625 26.3125 C 45.082031 26.3125 48.25 29.6875 48.25 29.6875 C 48.527344 30.003906 48.972656 30.109375 49.367188 29.957031 C 49.757813 29.804688 50.011719 29.421875 50 29 C 50 15.59375 39.28125 6.46875 26 6.03125 L 26 2 C 26.011719 1.710938 25.894531 1.433594 25.6875 1.238281 C 25.476563 1.039063 25.191406 0.941406 24.90625 0.96875 Z M 3.34375 2 C 3.058594 2.050781 2.804688 2.21875 2.65625 2.46875 C 2.65625 2.46875 2.019531 3.515625 1.375 4.75 C 1.054688 5.367188 0.722656 6.058594 0.46875 6.6875 C 0.214844 7.316406 0 7.851563 0 8.5 C 0 10.421875 1.578125 12 3.5 12 C 5.421875 12 7 10.421875 7 8.5 C 7 7.851563 6.785156 7.316406 6.53125 6.6875 C 6.277344 6.058594 5.945313 5.367188 5.625 4.75 C 4.980469 3.515625 4.34375 2.46875 4.34375 2.46875 C 4.148438 2.160156 3.800781 1.980469 3.4375 2 C 3.40625 2 3.375 2 3.34375 2 Z M 46.5 3.03125 C 46.667969 3.332031 46.691406 3.332031 46.875 3.6875 C 47.179688 4.269531 47.472656 4.90625 47.6875 5.4375 C 47.902344 5.96875 48 6.449219 48 6.5 C 48 7.375 47.375 8 46.5 8 C 45.625 8 45 7.375 45 6.5 C 45 6.449219 45.097656 5.96875 45.3125 5.4375 C 45.527344 4.90625 45.820313 4.269531 46.125 3.6875 C 46.308594 3.332031 46.332031 3.332031 46.5 3.03125 Z M 3.5 5.03125 C 3.667969 5.332031 3.691406 5.332031 3.875 5.6875 C 4.179688 6.269531 4.472656 6.90625 4.6875 7.4375 C 4.902344 7.96875 5 8.449219 5 8.5 C 5 9.375 4.375 10 3.5 10 C 2.625 10 2 9.375 2 8.5 C 2 8.449219 2.097656 7.96875 2.3125 7.4375 C 2.527344 6.90625 2.820313 6.269531 3.125 5.6875 C 3.308594 5.332031 3.332031 5.332031 3.5 5.03125 Z M 25 8 C 37.039063 8 46.566406 15.367188 47.75 26.6875 C 46.203125 25.535156 44.011719 24.3125 40.90625 24.3125 C 36.445313 24.3125 33.453125 26.835938 32.53125 27.6875 C 31.667969 26.710938 29.308594 24.3125 25 24.3125 C 20.652344 24.3125 18.273438 26.765625 17.4375 27.71875 C 16.511719 26.890625 13.429688 24.3125 9.09375 24.3125 C 6.003906 24.3125 3.804688 25.5625 2.25 26.71875 C 3.417969 15.382813 12.949219 8 25 8 Z"/></svg>